<mxfile host="app.diagrams.net" agent="Mozilla/5.0 (Windows NT 10.0; Win64; x64) AppleWebKit/537.36 (KHTML, like Gecko) Chrome/130.0.0.0 Safari/537.36" version="24.7.7">
  <diagram name="Seite-1" id="o9fkLvlloM0rShOAF0X_">
    <mxGraphModel dx="1193" dy="391" grid="1" gridSize="10" guides="1" tooltips="1" connect="1" arrows="1" fold="1" page="1" pageScale="1" pageWidth="827" pageHeight="1169" math="0" shadow="0">
      <root>
        <mxCell id="0" />
        <mxCell id="1" parent="0" />
        <mxCell id="iu8fWCgmAVUOtX-tMm2f-44" value="" style="rounded=0;whiteSpace=wrap;html=1;rotation=-90;gradientColor=#0F67B1;gradientDirection=west;fillColor=#FFB570;" parent="1" vertex="1">
          <mxGeometry x="325" y="75" width="40" height="10" as="geometry" />
        </mxCell>
        <mxCell id="iu8fWCgmAVUOtX-tMm2f-43" value="" style="rounded=0;whiteSpace=wrap;html=1;rotation=-90;fillColor=#D5E8D4;strokeColor=none;" parent="1" vertex="1">
          <mxGeometry x="310" y="150.01000000000002" width="40" height="80" as="geometry" />
        </mxCell>
        <mxCell id="iu8fWCgmAVUOtX-tMm2f-42" value="" style="rounded=0;whiteSpace=wrap;html=1;rotation=-180;fillColor=#D5E8D4;strokeColor=none;" parent="1" vertex="1">
          <mxGeometry x="340" y="130" width="40" height="80" as="geometry" />
        </mxCell>
        <mxCell id="iu8fWCgmAVUOtX-tMm2f-1" value="" style="endArrow=classic;html=1;rounded=0;endFill=1;" parent="1" edge="1">
          <mxGeometry width="50" height="50" relative="1" as="geometry">
            <mxPoint x="160" y="110" as="sourcePoint" />
            <mxPoint x="160" y="40" as="targetPoint" />
          </mxGeometry>
        </mxCell>
        <mxCell id="iu8fWCgmAVUOtX-tMm2f-2" value="" style="endArrow=classic;html=1;rounded=0;" parent="1" edge="1">
          <mxGeometry width="50" height="50" relative="1" as="geometry">
            <mxPoint x="150" y="100" as="sourcePoint" />
            <mxPoint x="400" y="100" as="targetPoint" />
          </mxGeometry>
        </mxCell>
        <mxCell id="iu8fWCgmAVUOtX-tMm2f-3" value="" style="endArrow=classic;html=1;rounded=0;endFill=1;" parent="1" edge="1">
          <mxGeometry width="50" height="50" relative="1" as="geometry">
            <mxPoint x="160" y="220" as="sourcePoint" />
            <mxPoint x="160" y="150" as="targetPoint" />
          </mxGeometry>
        </mxCell>
        <mxCell id="iu8fWCgmAVUOtX-tMm2f-4" value="" style="endArrow=classic;html=1;rounded=0;" parent="1" edge="1">
          <mxGeometry width="50" height="50" relative="1" as="geometry">
            <mxPoint x="150" y="210" as="sourcePoint" />
            <mxPoint x="400" y="210" as="targetPoint" />
          </mxGeometry>
        </mxCell>
        <mxCell id="iu8fWCgmAVUOtX-tMm2f-5" value="" style="endArrow=classic;html=1;rounded=0;" parent="1" edge="1">
          <mxGeometry width="50" height="50" relative="1" as="geometry">
            <mxPoint x="160.06" y="290" as="sourcePoint" />
            <mxPoint x="160.06" y="360" as="targetPoint" />
          </mxGeometry>
        </mxCell>
        <mxCell id="iu8fWCgmAVUOtX-tMm2f-6" value="" style="endArrow=classic;html=1;rounded=0;" parent="1" edge="1">
          <mxGeometry width="50" height="50" relative="1" as="geometry">
            <mxPoint x="150" y="298.3" as="sourcePoint" />
            <mxPoint x="400" y="298.3" as="targetPoint" />
          </mxGeometry>
        </mxCell>
        <mxCell id="iu8fWCgmAVUOtX-tMm2f-7" value="&lt;font color=&quot;#4d4d4d&quot; face=&quot;Georgia&quot;&gt;time&lt;/font&gt;" style="text;html=1;align=center;verticalAlign=middle;whiteSpace=wrap;rounded=0;" parent="1" vertex="1">
          <mxGeometry x="400" y="85" width="40" height="30" as="geometry" />
        </mxCell>
        <mxCell id="iu8fWCgmAVUOtX-tMm2f-10" value="&lt;font style=&quot;font-size: 12px;&quot; color=&quot;#4d4d4d&quot;&gt;&lt;font style=&quot;font-size: 12px;&quot; face=&quot;Georgia&quot;&gt;Material&amp;nbsp;&lt;/font&gt;&lt;span style=&quot;background-color: initial; font-family: Georgia;&quot;&gt;needs&lt;/span&gt;&lt;/font&gt;" style="text;html=1;align=center;verticalAlign=middle;whiteSpace=wrap;rounded=0;rotation=0;" parent="1" vertex="1">
          <mxGeometry x="120" y="20" width="82.7" height="15" as="geometry" />
        </mxCell>
        <mxCell id="iu8fWCgmAVUOtX-tMm2f-11" value="" style="rounded=0;whiteSpace=wrap;html=1;rotation=-90;gradientColor=none;gradientDirection=radial;fillColor=#0F67B1;" parent="1" vertex="1">
          <mxGeometry x="175" y="75" width="40" height="10" as="geometry" />
        </mxCell>
        <mxCell id="iu8fWCgmAVUOtX-tMm2f-12" value="" style="rounded=0;whiteSpace=wrap;html=1;rotation=-90;fillColor=#D5E8D4;" parent="1" vertex="1">
          <mxGeometry x="222.7" y="137.32" width="40" height="105.38" as="geometry" />
        </mxCell>
        <mxCell id="iu8fWCgmAVUOtX-tMm2f-13" value="" style="endArrow=none;html=1;rounded=0;exitX=1;exitY=1;exitDx=0;exitDy=0;dashed=1;" parent="1" source="iu8fWCgmAVUOtX-tMm2f-12" edge="1">
          <mxGeometry width="50" height="50" relative="1" as="geometry">
            <mxPoint x="400" y="210" as="sourcePoint" />
            <mxPoint x="340" y="170" as="targetPoint" />
          </mxGeometry>
        </mxCell>
        <mxCell id="iu8fWCgmAVUOtX-tMm2f-14" value="" style="endArrow=blockThin;html=1;rounded=0;dashed=1;endFill=1;" parent="1" edge="1">
          <mxGeometry width="50" height="50" relative="1" as="geometry">
            <mxPoint x="323" y="170" as="sourcePoint" />
            <mxPoint x="323" y="210" as="targetPoint" />
          </mxGeometry>
        </mxCell>
        <mxCell id="iu8fWCgmAVUOtX-tMm2f-17" value="" style="endArrow=blockThin;html=1;rounded=0;dashed=1;endFill=1;" parent="1" edge="1">
          <mxGeometry width="50" height="50" relative="1" as="geometry">
            <mxPoint x="310" y="170.01" as="sourcePoint" />
            <mxPoint x="310" y="210.01" as="targetPoint" />
          </mxGeometry>
        </mxCell>
        <mxCell id="iu8fWCgmAVUOtX-tMm2f-18" value="" style="endArrow=blockThin;html=1;rounded=0;dashed=1;exitX=1;exitY=1;exitDx=0;exitDy=0;entryX=0;entryY=1;entryDx=0;entryDy=0;endFill=1;" parent="1" source="iu8fWCgmAVUOtX-tMm2f-12" target="iu8fWCgmAVUOtX-tMm2f-12" edge="1">
          <mxGeometry width="50" height="50" relative="1" as="geometry">
            <mxPoint x="295" y="170.01" as="sourcePoint" />
            <mxPoint x="295" y="210.01" as="targetPoint" />
          </mxGeometry>
        </mxCell>
        <mxCell id="iu8fWCgmAVUOtX-tMm2f-19" value="" style="rounded=0;whiteSpace=wrap;html=1;rotation=-90;fillColor=#FFFFFF;gradientColor=#FFB570;gradientDirection=east;" parent="1" vertex="1">
          <mxGeometry x="276" y="313.3" width="40" height="10" as="geometry" />
        </mxCell>
        <mxCell id="iu8fWCgmAVUOtX-tMm2f-20" value="" style="rounded=0;whiteSpace=wrap;html=1;rotation=-90;fillColor=#FFB570;dashed=1;opacity=30;strokeColor=none;" parent="1" vertex="1">
          <mxGeometry x="162.7" y="313.3" width="40" height="10" as="geometry" />
        </mxCell>
        <mxCell id="iu8fWCgmAVUOtX-tMm2f-23" value="" style="endArrow=none;html=1;rounded=0;" parent="1" edge="1">
          <mxGeometry width="50" height="50" relative="1" as="geometry">
            <mxPoint x="340" y="170.64" as="sourcePoint" />
            <mxPoint x="340" y="130.64" as="targetPoint" />
          </mxGeometry>
        </mxCell>
        <mxCell id="iu8fWCgmAVUOtX-tMm2f-25" value="" style="rounded=0;whiteSpace=wrap;html=1;rotation=-90;gradientColor=#0F67B1;gradientDirection=west;fillColor=#FFB570;" parent="1" vertex="1">
          <mxGeometry x="280" y="75" width="40" height="10" as="geometry" />
        </mxCell>
        <mxCell id="iu8fWCgmAVUOtX-tMm2f-27" value="" style="endArrow=none;html=1;rounded=0;exitX=1;exitY=1;exitDx=0;exitDy=0;dashed=1;" parent="1" edge="1">
          <mxGeometry width="50" height="50" relative="1" as="geometry">
            <mxPoint x="305" y="60" as="sourcePoint" />
            <mxPoint x="320" y="60" as="targetPoint" />
          </mxGeometry>
        </mxCell>
        <mxCell id="iu8fWCgmAVUOtX-tMm2f-28" value="" style="endArrow=none;html=1;rounded=0;dashed=1;" parent="1" edge="1">
          <mxGeometry width="50" height="50" relative="1" as="geometry">
            <mxPoint x="323" y="60" as="sourcePoint" />
            <mxPoint x="323" y="100" as="targetPoint" />
            <Array as="points">
              <mxPoint x="323" y="80" />
            </Array>
          </mxGeometry>
        </mxCell>
        <mxCell id="iu8fWCgmAVUOtX-tMm2f-29" value="" style="endArrow=none;html=1;rounded=0;exitX=0;exitY=1;exitDx=0;exitDy=0;entryX=1;entryY=1;entryDx=0;entryDy=0;dashed=1;strokeColor=#666666;jumpSize=0;strokeWidth=1;endFill=0;startArrow=blockThin;startFill=1;" parent="1" edge="1">
          <mxGeometry width="50" height="50" relative="1" as="geometry">
            <mxPoint x="177.70000000000005" y="338.29999999999995" as="sourcePoint" />
            <mxPoint x="177.70000000000005" y="298.29999999999995" as="targetPoint" />
          </mxGeometry>
        </mxCell>
        <mxCell id="iu8fWCgmAVUOtX-tMm2f-30" value="&lt;font style=&quot;font-size: 12px;&quot; color=&quot;#4d4d4d&quot; face=&quot;Georgia&quot;&gt;Installed capacity&lt;/font&gt;" style="text;html=1;align=center;verticalAlign=middle;whiteSpace=wrap;rounded=0;rotation=0;" parent="1" vertex="1">
          <mxGeometry x="117.7" y="130" width="97.3" height="15" as="geometry" />
        </mxCell>
        <mxCell id="iu8fWCgmAVUOtX-tMm2f-31" value="&lt;font style=&quot;font-size: 12px;&quot; color=&quot;#4d4d4d&quot; face=&quot;Georgia&quot;&gt;Amount of scrap&lt;/font&gt;" style="text;html=1;align=center;verticalAlign=middle;whiteSpace=wrap;rounded=0;rotation=0;" parent="1" vertex="1">
          <mxGeometry x="120" y="270" width="90" height="15" as="geometry" />
        </mxCell>
        <mxCell id="iu8fWCgmAVUOtX-tMm2f-32" value="&lt;font color=&quot;#4d4d4d&quot; style=&quot;font-size: 12px;&quot; face=&quot;Georgia&quot;&gt;E.g., solar modules&lt;/font&gt;" style="text;html=1;align=center;verticalAlign=middle;whiteSpace=wrap;rounded=0;" parent="1" vertex="1">
          <mxGeometry x="200" y="175" width="86" height="30" as="geometry" />
        </mxCell>
        <mxCell id="iu8fWCgmAVUOtX-tMm2f-35" value="" style="curved=1;endArrow=classic;html=1;rounded=0;entryX=0.25;entryY=0;entryDx=0;entryDy=0;exitX=0.25;exitY=1;exitDx=0;exitDy=0;strokeColor=#0F67B1;strokeWidth=2;fontColor=#4158A6;" parent="1" source="iu8fWCgmAVUOtX-tMm2f-10" target="iu8fWCgmAVUOtX-tMm2f-30" edge="1">
          <mxGeometry width="50" height="50" relative="1" as="geometry">
            <mxPoint x="140" y="40" as="sourcePoint" />
            <mxPoint x="120" y="115" as="targetPoint" />
            <Array as="points">
              <mxPoint x="100" y="80" />
            </Array>
          </mxGeometry>
        </mxCell>
        <mxCell id="iu8fWCgmAVUOtX-tMm2f-38" value="" style="endArrow=none;html=1;rounded=0;dashed=1;strokeColor=#4D4D4D;" parent="1" edge="1">
          <mxGeometry width="50" height="50" relative="1" as="geometry">
            <mxPoint x="110" y="240" as="sourcePoint" />
            <mxPoint x="450" y="240" as="targetPoint" />
          </mxGeometry>
        </mxCell>
        <mxCell id="iu8fWCgmAVUOtX-tMm2f-41" value="" style="endArrow=none;html=1;rounded=0;" parent="1" edge="1">
          <mxGeometry width="50" height="50" relative="1" as="geometry">
            <mxPoint x="380" y="130" as="sourcePoint" />
            <mxPoint x="340" y="130" as="targetPoint" />
          </mxGeometry>
        </mxCell>
        <mxCell id="iu8fWCgmAVUOtX-tMm2f-45" value="" style="curved=1;endArrow=classic;html=1;rounded=0;strokeColor=#FFB570;dashed=1;strokeWidth=2;entryX=0.5;entryY=0;entryDx=0;entryDy=0;" parent="1" edge="1">
          <mxGeometry width="50" height="50" relative="1" as="geometry">
            <mxPoint x="388" y="111" as="sourcePoint" />
            <mxPoint x="343" y="75" as="targetPoint" />
            <Array as="points">
              <mxPoint x="369" y="85" />
            </Array>
          </mxGeometry>
        </mxCell>
        <mxCell id="iu8fWCgmAVUOtX-tMm2f-46" value="&lt;font style=&quot;font-size: 12px;&quot; face=&quot;Georgia&quot;&gt;&lt;b&gt;&lt;font color=&quot;#0f67b1&quot; style=&quot;font-size: 12px;&quot;&gt;(1)&lt;/font&gt;&lt;/b&gt; &lt;font style=&quot;font-size: 12px;&quot; color=&quot;#4d4d4d&quot;&gt;&lt;b&gt;Typically in EUR/MW&lt;/b&gt; (strong&amp;nbsp;implicit conditions about material prices and related volumes of primary supply markets)&lt;/font&gt;&lt;/font&gt;" style="text;html=1;align=left;verticalAlign=middle;whiteSpace=wrap;rounded=0;rotation=0;" parent="1" vertex="1">
          <mxGeometry x="466" y="62.51" width="180" height="60" as="geometry" />
        </mxCell>
        <mxCell id="iu8fWCgmAVUOtX-tMm2f-47" value="&lt;font color=&quot;#0f67b1&quot; style=&quot;font-size: 12px;&quot; face=&quot;Georgia&quot;&gt;&lt;b style=&quot;&quot;&gt;(1)&lt;/b&gt;&lt;/font&gt;" style="text;html=1;align=center;verticalAlign=middle;whiteSpace=wrap;rounded=0;rotation=0;" parent="1" vertex="1">
          <mxGeometry x="90" y="72.5" width="22.7" height="15" as="geometry" />
        </mxCell>
        <mxCell id="iu8fWCgmAVUOtX-tMm2f-50" value="&lt;font style=&quot;font-size: 12px;&quot; face=&quot;Georgia&quot;&gt;&lt;b&gt;&lt;font style=&quot;font-size: 12px;&quot; color=&quot;#ffb570&quot;&gt;(3)&lt;/font&gt;&lt;/b&gt; &lt;font style=&quot;font-size: 12px;&quot; color=&quot;#4d4d4d&quot;&gt;With few exceptions,&amp;nbsp; the amount &lt;b&gt;scrap is neglected&lt;/b&gt; in most energy system models&amp;nbsp;&lt;/font&gt;&lt;/font&gt;" style="text;html=1;align=left;verticalAlign=middle;whiteSpace=wrap;rounded=0;rotation=0;" parent="1" vertex="1">
          <mxGeometry x="466" y="232.51" width="190" height="15" as="geometry" />
        </mxCell>
        <mxCell id="iu8fWCgmAVUOtX-tMm2f-51" value="&lt;font color=&quot;#ffb570&quot; style=&quot;font-size: 12px;&quot; face=&quot;Georgia&quot;&gt;&lt;b style=&quot;&quot;&gt;(3)&lt;/b&gt;&lt;/font&gt;" style="text;html=1;align=center;verticalAlign=middle;whiteSpace=wrap;rounded=0;rotation=0;" parent="1" vertex="1">
          <mxGeometry x="90" y="190" width="22.7" height="15" as="geometry" />
        </mxCell>
        <mxCell id="iu8fWCgmAVUOtX-tMm2f-52" value="&lt;font color=&quot;#4d4d4d&quot; style=&quot;font-size: 12px;&quot; face=&quot;Georgia&quot;&gt;&lt;b style=&quot;&quot;&gt;(2)&lt;/b&gt;&lt;/font&gt;" style="text;html=1;align=center;verticalAlign=middle;whiteSpace=wrap;rounded=0;rotation=0;" parent="1" vertex="1">
          <mxGeometry x="333.65" y="182.51" width="22.7" height="15" as="geometry" />
        </mxCell>
        <mxCell id="iu8fWCgmAVUOtX-tMm2f-53" value="&lt;b style=&quot;font-family: Georgia;&quot;&gt;&lt;font style=&quot;font-size: 12px;&quot; color=&quot;#4d4d4d&quot;&gt;(2)&lt;/font&gt;&lt;/b&gt;&lt;font style=&quot;font-size: 12px;&quot; face=&quot;Georgia&quot;&gt;&lt;font style=&quot;font-size: 12px;&quot; color=&quot;#4d4d4d&quot;&gt; Considering the technology-specific &lt;b&gt;technical lifetime&lt;/b&gt; as a prerequisite for material recycling&lt;/font&gt;&lt;/font&gt;" style="text;html=1;align=left;verticalAlign=middle;whiteSpace=wrap;rounded=0;rotation=0;" parent="1" vertex="1">
          <mxGeometry x="466" y="162.52" width="204" height="15" as="geometry" />
        </mxCell>
        <mxCell id="iu8fWCgmAVUOtX-tMm2f-54" value="&lt;font color=&quot;#ffb570&quot; style=&quot;font-size: 12px;&quot; face=&quot;Georgia&quot;&gt;&lt;b style=&quot;&quot;&gt;(4)&lt;/b&gt;&lt;/font&gt;" style="text;html=1;align=center;verticalAlign=middle;whiteSpace=wrap;rounded=0;rotation=0;" parent="1" vertex="1">
          <mxGeometry x="402" y="162.5" width="22.7" height="15" as="geometry" />
        </mxCell>
        <mxCell id="iu8fWCgmAVUOtX-tMm2f-55" value="&lt;font style=&quot;font-size: 12px;&quot; face=&quot;Georgia&quot;&gt;&lt;b&gt;&lt;font style=&quot;font-size: 12px;&quot; color=&quot;#ffb570&quot;&gt;(4)&lt;/font&gt;&lt;/b&gt;&amp;nbsp;&lt;font style=&quot;font-size: 12px;&quot; color=&quot;#4d4d4d&quot;&gt;&lt;b&gt;Material recycling and remanufacturing&lt;/b&gt;: reusing available amount of scrap to &lt;b&gt;meet future material needs&lt;/b&gt;&lt;/font&gt;&lt;/font&gt;" style="text;html=1;align=left;verticalAlign=middle;whiteSpace=wrap;rounded=0;rotation=0;" parent="1" vertex="1">
          <mxGeometry x="466" y="302.51" width="200" height="15" as="geometry" />
        </mxCell>
        <mxCell id="GSxSy6XA0rOJKyPDjZ8n-1" value="&lt;font style=&quot;font-size: 10px;&quot; face=&quot;Georgia&quot;&gt;Boundary of most energy system models&amp;nbsp;&lt;/font&gt;" style="text;html=1;align=right;verticalAlign=middle;whiteSpace=wrap;rounded=0;fontColor=#4D4D4D;" parent="1" vertex="1">
          <mxGeometry x="200" y="223" width="239" height="16.6" as="geometry" />
        </mxCell>
        <mxCell id="iu8fWCgmAVUOtX-tMm2f-37" value="" style="curved=1;endArrow=classic;html=1;rounded=0;entryX=0.25;entryY=0;entryDx=0;entryDy=0;exitX=0.25;exitY=1;exitDx=0;exitDy=0;strokeColor=#FFB570;strokeWidth=2;dashed=1;" parent="1" source="iu8fWCgmAVUOtX-tMm2f-30" target="iu8fWCgmAVUOtX-tMm2f-31" edge="1">
          <mxGeometry width="50" height="50" relative="1" as="geometry">
            <mxPoint x="99" y="151.7" as="sourcePoint" />
            <mxPoint x="93" y="242.7" as="targetPoint" />
            <Array as="points">
              <mxPoint x="110" y="200" />
            </Array>
          </mxGeometry>
        </mxCell>
        <mxCell id="iu8fWCgmAVUOtX-tMm2f-39" value="" style="curved=1;endArrow=classic;html=1;rounded=0;strokeColor=#FFB570;dashed=1;strokeWidth=2;exitX=0.457;exitY=0.5;exitDx=0;exitDy=0;exitPerimeter=0;" parent="1" source="iu8fWCgmAVUOtX-tMm2f-19" edge="1">
          <mxGeometry width="50" height="50" relative="1" as="geometry">
            <mxPoint x="310" y="320" as="sourcePoint" />
            <mxPoint x="313" y="80" as="targetPoint" />
            <Array as="points">
              <mxPoint x="460" y="290" />
              <mxPoint x="420" y="110" />
            </Array>
          </mxGeometry>
        </mxCell>
        <mxCell id="GSxSy6XA0rOJKyPDjZ8n-2" value="&lt;font color=&quot;#4d4d4d&quot; face=&quot;Georgia&quot;&gt;time&lt;/font&gt;" style="text;html=1;align=center;verticalAlign=middle;whiteSpace=wrap;rounded=0;" parent="1" vertex="1">
          <mxGeometry x="400" y="200.01" width="40" height="30" as="geometry" />
        </mxCell>
        <mxCell id="GSxSy6XA0rOJKyPDjZ8n-3" value="&lt;font color=&quot;#4d4d4d&quot; face=&quot;Georgia&quot;&gt;time&lt;/font&gt;" style="text;html=1;align=center;verticalAlign=middle;whiteSpace=wrap;rounded=0;" parent="1" vertex="1">
          <mxGeometry x="400" y="293.3" width="40" height="30" as="geometry" />
        </mxCell>
        <mxCell id="myzLuhSDxMbqfSXh2lB4-1" value="&lt;font color=&quot;#0f67b1&quot; face=&quot;Georgia&quot; style=&quot;font-size: 12px;&quot;&gt;Primary supply&lt;/font&gt;" style="text;html=1;align=center;verticalAlign=middle;whiteSpace=wrap;rounded=0;rotation=0;fontSize=12;fontColor=#72849E;" parent="1" vertex="1">
          <mxGeometry x="196" y="40" width="90" height="15" as="geometry" />
        </mxCell>
        <mxCell id="myzLuhSDxMbqfSXh2lB4-2" value="&lt;font style=&quot;font-size: 12px;&quot;&gt;&lt;font color=&quot;#0f67b1&quot; style=&quot;font-size: 12px;&quot; face=&quot;Georgia&quot;&gt;Primary supply&lt;/font&gt;&lt;font color=&quot;#a9c4eb&quot; style=&quot;font-size: 12px;&quot; face=&quot;Georgia&quot;&gt; &lt;/font&gt;&lt;font color=&quot;#4d4d4d&quot; style=&quot;font-size: 12px;&quot; face=&quot;Georgia&quot;&gt;+&lt;/font&gt;&lt;font color=&quot;#a9c4eb&quot; style=&quot;font-size: 12px;&quot; face=&quot;Georgia&quot;&gt;&amp;nbsp;&lt;/font&gt;&lt;font color=&quot;#f4a261&quot;&gt;&lt;font style=&quot;font-size: 12px;&quot; face=&quot;Georgia&quot;&gt;Secondary&lt;/font&gt;&lt;font style=&quot;font-size: 12px;&quot; face=&quot;Georgia&quot;&gt; &lt;/font&gt;&lt;font style=&quot;font-size: 12px;&quot; face=&quot;Georgia&quot;&gt;supply&lt;/font&gt;&lt;/font&gt;&lt;/font&gt;" style="text;html=1;align=center;verticalAlign=middle;whiteSpace=wrap;rounded=0;rotation=0;fontSize=12;" parent="1" vertex="1">
          <mxGeometry x="286" y="25" width="208" height="15" as="geometry" />
        </mxCell>
      </root>
    </mxGraphModel>
  </diagram>
</mxfile>
